<?xml version="1.0" encoding="utf-8"?>
<!-- Generator: Adobe Illustrator 27.9.0, SVG Export Plug-In . SVG Version: 6.00 Build 0)  -->
<svg version="1.1" id="Calque_1" xmlns="http://www.w3.org/2000/svg" xmlns:xlink="http://www.w3.org/1999/xlink" x="0px" y="0px"
	 viewBox="0 0 50 50" style="enable-background:new 0 0 50 50;" xml:space="preserve">
<style type="text/css">
	.st0{enable-background:new    ;}
	.st1{fill:#FFFFFF;}
</style>
<g>
	<g class="st0">
		<path class="st1" d="M21.9,18.1c0.8-0.5,1.8-0.8,3-0.8c1.5,0,2.8,0.4,3.9,1.1c1.1,0.7,1.5,1.8,1.5,3.3c0,0.9-0.2,1.6-0.7,2.2
			c-0.2,0.5-0.7,0.9-1.5,1.5L27.4,26c-0.4,0.3-0.7,0.7-0.8,1.1c-0.1,0.3-0.1,0.7-0.1,1.2h-2.8c0-1.1,0.1-2,0.3-2.4
			c0.2-0.4,0.6-1,1.4-1.5l0.8-0.6c0.2-0.2,0.4-0.4,0.6-0.6c0.3-0.4,0.4-0.8,0.4-1.2c0-0.5-0.1-1-0.5-1.4C26.4,20.2,25.8,20,25,20
			s-1.4,0.3-1.7,0.8c-0.3,0.5-0.5,1.1-0.5,1.6h-3C20,20.3,20.6,18.9,21.9,18.1z M23.6,29.6h3.1v3h-3.1V29.6z"/>
	</g>
</g>
</svg>
