<?xml version="1.0" encoding="utf-8"?>
<!-- Generator: Adobe Illustrator 27.9.0, SVG Export Plug-In . SVG Version: 6.00 Build 0)  -->
<svg version="1.1" id="Calque_1" xmlns="http://www.w3.org/2000/svg" xmlns:xlink="http://www.w3.org/1999/xlink" x="0px" y="0px"
	 viewBox="0 0 50 50" style="enable-background:new 0 0 50 50;" xml:space="preserve">
<style type="text/css">
	.st0{fill:#FFFFFF;}
</style>
<g>
	<path class="st0" d="M10,31h9.8H21h8.2c0.3-0.7,1-1,1.5-1.2c0.2-0.1,1.1-0.2,1.5,0c0.7,0.2,1.1,0.8,1.3,1.2h2.7h1.3h0.2
		c0,0,0,0,0,0c0.7-0.1,1.3-0.9,1.3-1.8v-0.1c0-0.3-0.1-0.5-0.2-0.8h1.7V15.6H19.8v10.7c0,0,0,0,0,0.1v3.4v0.3v0.1h-10
		c-0.2,0-0.4,0.2-0.4,0.4c0,0.2,0.1,0.3,0.2,0.3L10,31z"/>
	<path class="st0" d="M31.3,29.9c-1.2,0-2.2,1-2.2,2.2c0,1.2,1,2.2,2.2,2.2c1.2,0,2.2-1,2.2-2.2C33.5,30.9,32.5,29.9,31.3,29.9z
		 M31.3,33.2c-0.6,0-1-0.5-1-1c0-0.6,0.5-1,1-1c0.6,0,1,0.5,1,1C32.3,32.7,31.8,33.2,31.3,33.2z"/>
</g>
</svg>
