<?xml version="1.0" encoding="utf-8"?>
<!-- Generator: Adobe Illustrator 27.9.0, SVG Export Plug-In . SVG Version: 6.00 Build 0)  -->
<svg version="1.1" id="Calque_1" xmlns="http://www.w3.org/2000/svg" xmlns:xlink="http://www.w3.org/1999/xlink" x="0px" y="0px"
	 viewBox="0 0 50 50" style="enable-background:new 0 0 50 50;" xml:space="preserve">
<style type="text/css">
	.st0{fill:#FFFFFF;}
</style>
<path class="st0" d="M31,17.4l3.2,3L24,32.6l-8.1-6.9l2.8-3.4l4.6,4.1L31,17.4z"/>
<g>
	<path class="st0" d="M8.9,30.3c0,3,2.5,5.5,5.5,5.5s5.5-2.5,5.5-5.5c0-1.8-0.8-3.3-2.1-4.4l1.9-3.8c2.8,1.3,4.7,4.1,4.7,7.4
		c0,0.2,0,0.3,0,0.5c0.2,0,0.3,0,0.5,0h5c0.6,0,1.1-0.2,1.4-0.6c0,0.3-0.1,0.6-0.1,0.9c0,3,2.5,5.5,5.5,5.5c3,0,5.5-2.5,5.5-5.5
		c0-3-2.5-5.5-5.5-5.5c-2,0-3.8,1.1-4.7,2.7l-1.5-0.7l8.5-4.4h1.8c0.6,0,1.2-0.5,1.2-1.2c0-0.6-0.5-1.2-1.2-1.2h-1
		c-0.8,1.2-3.6,1.7-6.9,1.7c-3.7,0-6.7-0.8-7.1-1.9c-0.5-0.6-1.2-0.9-2.1-0.9c-0.9,0-1.8,0.4-2.3,1.1h-0.2l1.8-3.9
		c0.2-0.4,0-0.8-0.4-1c-0.4-0.2-0.8,0-1,0.4l-1.9,4.2L19.3,20H19c-0.6,0-1.3-0.2-1.9-0.2c-2.8,0-5.2,1.5-6.6,3.7
		c1.5-1.4,3.5-2.3,5.7-2.3c0.8,0,1.6,0.1,2.4,0.4l-1.8,3.6c-0.7-0.3-1.5-0.5-2.4-0.5C11.3,24.7,8.9,27.2,8.9,30.3z M40.6,30h-1.9
		c0,0,0,0,0,0h0c0,0,0,0,0,0c0-0.4-0.1-0.7-0.3-1l1.3-1.4C40.2,28.3,40.6,29.2,40.6,30z M39.6,32.8l-1.5-1.5c0.2-0.2,0.4-0.6,0.5-1
		h2C40.5,31.5,40.2,32.2,39.6,32.8z M36.8,32c0.4,0,0.7-0.1,1-0.3l1.5,1.5c-0.6,0.6-1.3,1-2.4,1V32z M36.8,26.3
		c1.2,0.1,1.9,0.5,2.6,1.1l-1.4,1.3c-0.3-0.3-0.4-0.5-1.2-0.5V26.3z M33.7,27.6l1.2,1.2l-1.6-0.7C33.5,27.9,33.6,27.7,33.7,27.6z
		 M36.4,28.2c-0.4,0.1-0.7,0.3-1,0.5l-1.5-1.5c0.7-0.6,1.8-1,2.5-1V28.2z M34,33.3l1.6-1.6c0.2,0.2,0.8,0.3,0.8,0.3v2.3
		C35.6,34.2,34.7,33.8,34,33.3z M32.7,30.4H35c0.1,0.4,0.2,0.7,0.5,0.9l-1.6,1.6C33.2,32.3,32.8,31.5,32.7,30.4z M32.7,30
		c0-0.4,0.1-0.6,0.2-1l2.1,1c0,0,0,0,0,0h0h0H32.7z M17.1,27.4l-0.4,0.4l0.2-0.5C17,27.3,17.1,27.4,17.1,27.4z M18.3,30h-1.9
		c0,0,0,0,0,0h0c0,0,0,0,0,0c0-0.4-0.1-0.7-0.3-0.9l0.1-0.3l1.2-1.2C17.9,28.3,18.3,29.2,18.3,30z M17.3,32.8l-1.5-1.5
		c0.2-0.2,0.4-0.6,0.5-1h2C18.2,31.5,17.9,32.2,17.3,32.8z M14.5,32c0.4,0,0.7-0.1,1-0.3l1.5,1.5c-0.6,0.6-1.3,1-2.4,1V32z
		 M14.5,26.3c0.8,0,1,0.2,1.5,0.4L15,28.4c-0.2-0.1-0.2-0.1-0.6-0.1V26.3z M11.4,27.5l1.5,1.5c-0.2,0.3-0.3,0.6-0.3,1h0c0,0,0,0,0,0
		h-2.2C10.4,29.2,10.8,28.2,11.4,27.5z M14.1,28.3c-0.4,0.1-0.7,0.2-1,0.5l-1.5-1.5c0.7-0.6,1.8-1,2.5-1V28.3z M11.7,33.3l1.6-1.6
		c0.2,0.2,0.8,0.3,0.8,0.3v2.3C13.3,34.2,12.4,33.8,11.7,33.3z M10.4,30.4h2.3c0.1,0.4,0.2,0.7,0.5,0.9l-1.6,1.6
		C10.9,32.3,10.5,31.5,10.4,30.4z"/>
</g>
</svg>
