<?xml version="1.0" encoding="utf-8"?>
<!-- Generator: Adobe Illustrator 27.9.0, SVG Export Plug-In . SVG Version: 6.00 Build 0)  -->
<svg version="1.1" id="Calque_1" xmlns="http://www.w3.org/2000/svg" xmlns:xlink="http://www.w3.org/1999/xlink" x="0px" y="0px"
	 viewBox="0 0 50 50" style="enable-background:new 0 0 50 50;" xml:space="preserve">
<style type="text/css">
	.st0{fill:url(#SVGID_1_);}
	.st1{fill:url(#SVGID_00000088125889478649220960000009818811884616804488_);}
	.st2{fill:url(#SVGID_00000093145148866308203010000014062368195001915522_);}
	.st3{fill:url(#SVGID_00000022537236836940502890000017966234776315092371_);}
	.st4{fill:#FFFFFF;}
</style>
<linearGradient id="SVGID_1_" gradientUnits="userSpaceOnUse" x1="7.4" y1="5642.2964" x2="42.61" y2="5642.2964" gradientTransform="matrix(1 0 0 1 0 -5617.2915)">
	<stop  offset="0" style="stop-color:#0095B1"/>
	<stop  offset="0.1132" style="stop-color:#0082A0"/>
	<stop  offset="0.2766" style="stop-color:#006D8E"/>
	<stop  offset="0.459" style="stop-color:#005E81"/>
	<stop  offset="0.6736" style="stop-color:#005579"/>
	<stop  offset="1" style="stop-color:#005277"/>
</linearGradient>
<rect x="7.4" y="7.4" class="st0" width="35.2" height="35.2"/>
<linearGradient id="SVGID_00000026149610620282528190000009645571434498405046_" gradientUnits="userSpaceOnUse" x1="14.04" y1="5660.7612" x2="26.04" y2="5660.7612" gradientTransform="matrix(1 0 0 1 0 -5617.2915)">
	<stop  offset="0" style="stop-color:#0095B1"/>
	<stop  offset="0.1132" style="stop-color:#0082A0"/>
	<stop  offset="0.2766" style="stop-color:#006D8E"/>
	<stop  offset="0.459" style="stop-color:#005E81"/>
	<stop  offset="0.6736" style="stop-color:#005579"/>
	<stop  offset="1" style="stop-color:#005277"/>
</linearGradient>
<rect x="14" y="37.5" style="fill:url(#SVGID_00000026149610620282528190000009645571434498405046_);" width="12" height="12"/>
<linearGradient id="SVGID_00000145762371982742099120000004169022469551486898_" gradientUnits="userSpaceOnUse" x1="24.63" y1="5619.8662" x2="28.7154" y2="5619.8662" gradientTransform="matrix(1 0 0 1 0 -5617.2915)">
	<stop  offset="0" style="stop-color:#0095B1"/>
	<stop  offset="0.1132" style="stop-color:#0082A0"/>
	<stop  offset="0.2766" style="stop-color:#006D8E"/>
	<stop  offset="0.459" style="stop-color:#005E81"/>
	<stop  offset="0.6736" style="stop-color:#005579"/>
	<stop  offset="1" style="stop-color:#005277"/>
</linearGradient>
<rect x="24.6" y="0.5" style="fill:url(#SVGID_00000145762371982742099120000004169022469551486898_);" width="4.1" height="4.1"/>
<linearGradient id="SVGID_00000119114554658740147790000008116715884605450933_" gradientUnits="userSpaceOnUse" x1="40.87" y1="5652.6265" x2="47.3" y2="5652.6265" gradientTransform="matrix(1 0 0 1 0 -5617.2915)">
	<stop  offset="0" style="stop-color:#0095B1"/>
	<stop  offset="0.1132" style="stop-color:#0082A0"/>
	<stop  offset="0.2766" style="stop-color:#006D8E"/>
	<stop  offset="0.459" style="stop-color:#005E81"/>
	<stop  offset="0.6736" style="stop-color:#005579"/>
	<stop  offset="1" style="stop-color:#005277"/>
</linearGradient>
<path style="fill:url(#SVGID_00000119114554658740147790000008116715884605450933_);" d="M47.3,32.1h-6.4v6.4h6.4V32.1z"/>
<path class="st4" d="M24.9,27.6l6.1-0.2l0.1,4.4L20.4,32l-0.1-15.9l4.4-0.3L24.9,27.6z"/>
<g>
	<path class="st4" d="M16,44.6c0,0.7,0.6,1.3,1.3,1.3s1.3-0.6,1.3-1.3c0-0.4-0.2-0.8-0.5-1.1l0.5-0.9c0.7,0.3,1.2,1,1.2,1.8
		c0,0,0,0.1,0,0.1c0,0,0.1,0,0.1,0h1.2c0.1,0,0.3-0.1,0.3-0.2c0,0.1,0,0.1,0,0.2c0,0.7,0.6,1.3,1.3,1.3c0.7,0,1.3-0.6,1.3-1.3
		c0-0.7-0.6-1.3-1.3-1.3c-0.5,0-0.9,0.3-1.2,0.7l-0.4-0.2l2.1-1.1h0.4c0.2,0,0.3-0.1,0.3-0.3c0-0.2-0.1-0.3-0.3-0.3h-0.2
		c-0.2,0.3-0.9,0.4-1.7,0.4c-0.9,0-1.6-0.2-1.7-0.5c-0.1-0.1-0.3-0.2-0.5-0.2c-0.2,0-0.4,0.1-0.6,0.3h0l0.4-1c0-0.1,0-0.2-0.1-0.2
		c-0.1,0-0.2,0-0.2,0.1l-0.5,1l-0.1,0.1h-0.1c-0.2,0-0.3,0-0.5,0c-0.7,0-1.3,0.4-1.6,0.9c0.4-0.3,0.8-0.6,1.4-0.6
		c0.2,0,0.4,0,0.6,0.1l-0.4,0.9c-0.2-0.1-0.4-0.1-0.6-0.1C16.6,43.3,16,43.9,16,44.6z M23.7,44.6h-0.5c0,0,0,0,0,0h0c0,0,0,0,0,0
		c0-0.1,0-0.2-0.1-0.2l0.3-0.3C23.6,44.2,23.7,44.4,23.7,44.6z M23.5,45.3l-0.4-0.4c0.1-0.1,0.1-0.1,0.1-0.2h0.5
		C23.7,45,23.6,45.1,23.5,45.3z M22.8,45.1c0.1,0,0.2,0,0.2-0.1l0.4,0.4c-0.2,0.1-0.3,0.2-0.6,0.2V45.1z M22.8,43.7
		c0.3,0,0.5,0.1,0.6,0.3l-0.3,0.3c-0.1-0.1-0.1-0.1-0.3-0.1V43.7z M22,44l0.3,0.3L22,44.1C22,44.1,22,44,22,44z M22.7,44.2
		c-0.1,0-0.2,0.1-0.2,0.1l-0.4-0.4c0.2-0.2,0.4-0.2,0.6-0.3V44.2z M22.1,45.4l0.4-0.4c0.1,0,0.2,0.1,0.2,0.1v0.5
		C22.5,45.6,22.3,45.5,22.1,45.4z M21.8,44.7h0.6c0,0.1,0.1,0.2,0.1,0.2l-0.4,0.4C21.9,45.1,21.8,45,21.8,44.7z M21.8,44.6
		c0-0.1,0-0.2,0-0.2l0.5,0.2c0,0,0,0,0,0h0h0H21.8z M18,44L18,44L18,44C18,43.9,18,43.9,18,44z M18.3,44.6h-0.5c0,0,0,0,0,0h0
		c0,0,0,0,0,0c0-0.1,0-0.2-0.1-0.2l0-0.1l0.3-0.3C18.2,44.2,18.3,44.4,18.3,44.6z M18,45.3l-0.4-0.4c0.1-0.1,0.1-0.1,0.1-0.2h0.5
		C18.3,45,18.2,45.1,18,45.3z M17.4,45.1c0.1,0,0.2,0,0.2-0.1l0.4,0.4c-0.2,0.1-0.3,0.2-0.6,0.2V45.1z M17.4,43.7
		c0.2,0,0.3,0,0.4,0.1l-0.2,0.4c0,0,0,0-0.1,0V43.7z M16.6,44l0.4,0.4c0,0.1-0.1,0.1-0.1,0.2h0c0,0,0,0,0,0h-0.5
		C16.4,44.4,16.5,44.1,16.6,44z M17.3,44.2c-0.1,0-0.2,0.1-0.2,0.1l-0.4-0.4c0.2-0.2,0.4-0.2,0.6-0.3V44.2z M16.7,45.4l0.4-0.4
		c0.1,0,0.2,0.1,0.2,0.1v0.5C17.1,45.6,16.8,45.5,16.7,45.4z M16.4,44.7h0.6c0,0.1,0.1,0.2,0.1,0.2l-0.4,0.4
		C16.5,45.1,16.4,45,16.4,44.7z"/>
</g>
</svg>
