<?xml version="1.0" encoding="utf-8"?>
<!-- Generator: Adobe Illustrator 27.9.0, SVG Export Plug-In . SVG Version: 6.00 Build 0)  -->
<svg version="1.1" id="Calque_1" xmlns="http://www.w3.org/2000/svg" xmlns:xlink="http://www.w3.org/1999/xlink" x="0px" y="0px"
	 viewBox="0 0 50 50" style="enable-background:new 0 0 50 50;" xml:space="preserve">
<style type="text/css">
	.st0{fill:url(#SVGID_1_);}
	.st1{fill:#FFFFFF;}
	.st2{fill:url(#SVGID_00000143576884723416748440000010173369651992775343_);}
	.st3{fill:url(#SVGID_00000163772509253361453820000012820381307325804207_);}
	.st4{fill:url(#SVGID_00000026847500059821647580000014191790541142590893_);}
	.st5{enable-background:new    ;}
</style>
<g>
	
		<linearGradient id="SVGID_1_" gradientUnits="userSpaceOnUse" x1="7.45" y1="11260.1914" x2="42.65" y2="11260.1914" gradientTransform="matrix(1 0 0 1 0 -11235.292)">
		<stop  offset="0" style="stop-color:#0095B1"/>
		<stop  offset="0.1132" style="stop-color:#0082A0"/>
		<stop  offset="0.2766" style="stop-color:#006D8E"/>
		<stop  offset="0.459" style="stop-color:#005E81"/>
		<stop  offset="0.6736" style="stop-color:#005579"/>
		<stop  offset="1" style="stop-color:#005277"/>
	</linearGradient>
	<rect x="7.4" y="7.3" class="st0" width="35.2" height="35.2"/>
	<path class="st1" d="M19.7,22.6l6.1-0.2l0.1,4.4L15.2,27l-0.1-15.9l4.4-0.3L19.7,22.6z"/>
	
		<linearGradient id="SVGID_00000121967696844333288950000012568861186467678854_" gradientUnits="userSpaceOnUse" x1="0.45" y1="11280.1914" x2="9.66" y2="11280.1914" gradientTransform="matrix(1 0 0 1 0 -11235.292)">
		<stop  offset="0" style="stop-color:#0095B1"/>
		<stop  offset="0.1132" style="stop-color:#0082A0"/>
		<stop  offset="0.2766" style="stop-color:#006D8E"/>
		<stop  offset="0.459" style="stop-color:#005E81"/>
		<stop  offset="0.6736" style="stop-color:#005579"/>
		<stop  offset="1" style="stop-color:#005277"/>
	</linearGradient>
	<rect x="0.4" y="40.3" style="fill:url(#SVGID_00000121967696844333288950000012568861186467678854_);" width="9.2" height="9.2"/>
	
		<linearGradient id="SVGID_00000149355877213487291550000011272832161539520406_" gradientUnits="userSpaceOnUse" x1="45.22" y1="11259.042" x2="49.55" y2="11259.042" gradientTransform="matrix(1 0 0 1 0 -11235.292)">
		<stop  offset="0" style="stop-color:#0095B1"/>
		<stop  offset="0.1132" style="stop-color:#0082A0"/>
		<stop  offset="0.2766" style="stop-color:#006D8E"/>
		<stop  offset="0.459" style="stop-color:#005E81"/>
		<stop  offset="0.6736" style="stop-color:#005579"/>
		<stop  offset="1" style="stop-color:#005277"/>
	</linearGradient>
	
		<rect x="45.2" y="21.6" style="fill:url(#SVGID_00000149355877213487291550000011272832161539520406_);" width="4.3" height="4.3"/>
	
		<linearGradient id="SVGID_00000127041943336098895360000013328814666405248684_" gradientUnits="userSpaceOnUse" x1="2.63" y1="11241.4922" x2="14.07" y2="11241.4922" gradientTransform="matrix(1 0 0 1 0 -11235.292)">
		<stop  offset="0" style="stop-color:#0095B1"/>
		<stop  offset="0.1132" style="stop-color:#0082A0"/>
		<stop  offset="0.2766" style="stop-color:#006D8E"/>
		<stop  offset="0.459" style="stop-color:#005E81"/>
		<stop  offset="0.6736" style="stop-color:#005579"/>
		<stop  offset="1" style="stop-color:#005277"/>
	</linearGradient>
	<path style="fill:url(#SVGID_00000127041943336098895360000013328814666405248684_);" d="M14.1,11.9H2.6V0.5H14v11.4H14.1z"/>
</g>
<g class="st5">
	<path class="st1" d="M35.6,26.7v2.8h-9.1l0-2.4c2.7-4.4,4.3-7.1,4.8-8.2c0.5-1,0.8-1.9,0.8-2.5c0-0.5-0.1-0.8-0.2-1
		c-0.2-0.2-0.4-0.3-0.7-0.3c-0.3,0-0.5,0.1-0.7,0.4c-0.2,0.2-0.2,0.7-0.2,1.5v1.6h-3.7V18c0-0.9,0-1.7,0.1-2.2
		c0.1-0.5,0.3-1.1,0.7-1.6s0.9-0.9,1.5-1.2c0.6-0.3,1.3-0.4,2.2-0.4c1.6,0,2.9,0.4,3.7,1.2c0.8,0.8,1.3,1.9,1.3,3.1c0,1-0.2,2-0.7,3
		c-0.5,1.1-1.9,3.3-4.2,6.7H35.6z"/>
</g>
<g class="st5">
	<path class="st1" d="M17.4,38.1c0-0.2-0.1-0.2-0.1-0.7v-0.9c0-0.5-0.2-0.8-0.6-0.8h-0.3v2.4h-0.9v-5.9h1.4c1,0,1.4,0.4,1.4,1.4V34
		c0,0.6-0.2,1-0.6,1.2c0.5,0.2,0.6,0.6,0.6,1.3v0.9c0,0.3,0,0.5,0.1,0.7H17.4z M16.3,33.1v1.8h0.4c0.3,0,0.6-0.2,0.6-0.6v-0.6
		c0-0.4-0.1-0.6-0.5-0.6H16.3z"/>
	<path class="st1" d="M18.7,33.6c0-0.9,0.5-1.5,1.4-1.5c0.9,0,1.4,0.5,1.4,1.5v3.1c0,0.9-0.5,1.5-1.4,1.5c-0.9,0-1.4-0.5-1.4-1.5
		V33.6z M19.7,36.8c0,0.4,0.2,0.6,0.5,0.6c0.3,0,0.5-0.2,0.5-0.6v-3.2c0-0.4-0.2-0.6-0.5-0.6c-0.3,0-0.5,0.2-0.5,0.6V36.8z"/>
	<path class="st1" d="M24.1,36.4l0.6-4.2H26v5.9h-0.9v-4.2l-0.6,4.2h-0.9L22.9,34v4.2h-0.8v-5.9h1.3L24.1,36.4z"/>
	<path class="st1" d="M26.6,33.6c0-0.9,0.5-1.5,1.4-1.5s1.4,0.5,1.4,1.5v3.1c0,0.9-0.5,1.5-1.4,1.5s-1.4-0.5-1.4-1.5V33.6z
		 M27.5,36.8c0,0.4,0.2,0.6,0.5,0.6s0.5-0.2,0.5-0.6v-3.2c0-0.4-0.2-0.6-0.5-0.6s-0.5,0.2-0.5,0.6V36.8z"/>
	<path class="st1" d="M30.8,33.9v4.3H30v-5.9h1.2l1,3.5v-3.5h0.8v5.9h-1L30.8,33.9z"/>
	<path class="st1" d="M33.3,32.2h2.9v0.8h-1v5h-0.9v-5h-1V32.2z"/>
</g>
</svg>
