<?xml version="1.0" standalone="no"?>
<!DOCTYPE svg PUBLIC "-//W3C//DTD SVG 20010904//EN"
 "http://www.w3.org/TR/2001/REC-SVG-20010904/DTD/svg10.dtd">
<svg version="1.0" xmlns="http://www.w3.org/2000/svg"
 width="693.000000pt" height="693.000000pt" viewBox="0 0 693.000000 693.000000"
 preserveAspectRatio="xMidYMid meet">
<metadata>
Created by potrace 1.11, written by Peter Selinger 2001-2013
</metadata>
<g transform="translate(0.000000,693.000000) scale(0.100000,-0.100000)"
fill="#000000" stroke="none">
<path d="M5956 6853 c-1 -1 -110 -5 -241 -8 -132 -3 -294 -8 -360 -10 -107 -3
-250 -8 -675 -20 -69 -2 -235 -7 -370 -11 -135 -3 -285 -8 -335 -9 -49 -2
-110 -4 -135 -4 l-46 -1 2 -82 c2 -79 10 -365 19 -673 7 -201 19 -657 25 -898
2 -43 0 -81 -4 -84 -4 -4 -46 -8 -94 -9 -48 -1 -149 -3 -224 -5 -75 -2 -139
-2 -141 1 -4 4 -18 597 -20 847 0 40 -3 71 -6 69 -3 -2 -49 -7 -101 -11 -52
-4 -108 -8 -125 -10 -89 -11 -205 -16 -206 -9 0 5 -2 59 -4 119 -14 462 -17
578 -19 638 l-1 67 -190 -5 c-104 -3 -262 -7 -350 -10 -88 -3 -243 -7 -345
-10 -102 -3 -273 -7 -380 -11 -107 -3 -251 -7 -320 -9 -126 -4 -510 -15 -695
-20 -55 -2 -125 -4 -156 -4 l-55 -1 2 -57 c1 -32 5 -162 8 -288 l7 -230 -138
-4 c-76 -2 -169 -4 -208 -5 l-70 -1 -3 -1247 -2 -1247 100 3 c69 3 100 0 101
-8 1 -6 3 -58 4 -116 2 -58 6 -199 9 -315 4 -115 8 -282 11 -370 3 -88 8 -252
11 -365 4 -113 7 -229 7 -259 l1 -53 231 6 c126 3 329 9 450 11 121 3 238 7
260 9 l40 4 3 -126 c2 -70 5 -181 7 -247 2 -66 6 -236 10 -377 7 -247 6 -258
-11 -259 -24 -1 -168 -5 -489 -14 -217 -6 -402 -12 -456 -14 -14 -1 -16 -14
-13 -93 6 -194 26 -885 27 -961 l1 -57 1247 0 1247 0 -3 77 c-2 43 -6 191 -9
330 l-6 251 122 2 c68 1 146 3 173 4 l50 1 3 -110 c2 -60 5 -111 7 -113 4 -4
196 -2 365 3 98 4 408 13 655 20 77 2 239 7 360 10 384 12 415 12 415 1 2 -44
10 -299 12 -378 l2 -98 614 0 613 0 -6 238 c-4 130 -8 271 -10 312 -2 41 -3
121 -4 177 l-1 101 -182 -4 c-101 -3 -220 -6 -266 -8 -46 -1 -85 0 -87 4 -2 3
-6 118 -10 255 -3 138 -8 306 -10 375 -2 69 -6 220 -10 335 -3 116 -8 278 -10
360 -2 83 -7 245 -10 360 -5 168 -12 414 -15 481 0 7 -31 10 -92 8 -114 -3
-436 -12 -703 -20 -110 -3 -222 -7 -248 -8 -27 0 -50 1 -52 4 -2 3 -6 118 -10
255 -4 138 -8 302 -10 365 -2 63 -6 221 -10 350 -4 129 -8 265 -9 302 -1 43 3
69 10 72 6 2 51 5 100 6 49 1 148 3 219 5 271 7 546 15 700 20 296 9 804 23
872 24 38 1 41 3 38 24 -2 12 -6 141 -10 287 -3 146 -8 317 -10 380 -3 63 -7
211 -10 329 -5 197 -8 326 -20 716 -2 77 -7 250 -11 385 -7 252 -11 349 -13
363 -1 7 -318 7 -325 0z"/>
</g>
</svg>
